# xmcd CD database file
#
# Track frame offsets:
#	187
#	15297
#	32847
#	47492
#	61747
#	76172
#	91439
#	105822
#	118972
#	134584
#	155872
#	170647
#	190709
#	202439
#	217724
#	232452
#
# Disc length: 3304 seconds
#
# Revision: 5
# Processed by: cddbd v1.5.2PL0 Copyright (c) Steve Scherf et al.
# Submitted via: CDex 1.70beta3
#
DISCID=db0ce610
DTITLE=???? - Julie Special Disc 1
DYEAR=1986
DGENRE=Pop
TTITLE0=?????
TTITLE1=??????
TTITLE2=????????
TTITLE3=??????
TTITLE4=??????
TTITLE5=??????
TTITLE6=?????????
TTITLE7=??????
TTITLE8=??????
TTITLE9=??
TTITLE10=?????
TTITLE11=????
TTITLE12=??????
TTITLE13=?????????
TTITLE14=???????????
TTITLE15=?????????
EXTD=YEAR: 1986
EXTT0=
EXTT1=
EXTT2=
EXTT3=
EXTT4=
EXTT5=
EXTT6=
EXTT7=
EXTT8=
EXTT9=
EXTT10=
EXTT11=
EXTT12=
EXTT13=
EXTT14=
EXTT15=
PLAYORDER=
